<svg xmlns="http://www.w3.org/2000/svg" width="24" height="24" viewBox="0 0 24 24" fill="none">
    <g id="Frame" clip-path="url(#clip0_2666_20553)">
        <path id="Vector" d="M11.9999 22.6155C17.8975 22.6155 22.6784 17.8629 22.6784 12.0002C22.6784 6.13744 17.8975 1.38477 11.9999 1.38477C6.10225 1.38477 1.32129 6.13744 1.32129 12.0002C1.32129 17.8629 6.10225 22.6155 11.9999 22.6155Z" fill="#1F82FF" fill-opacity="0.03" stroke="#444444" stroke-width="2"/>
        <path id="Vector_2" d="M16.9447 15.8311C16.671 15.1867 16.2738 14.6013 15.7752 14.1076C15.2782 13.6125 14.6894 13.2177 14.0414 12.9451C14.0356 12.9422 14.0298 12.9408 14.024 12.9379C14.9279 12.2889 15.5155 11.2316 15.5155 10.0388C15.5155 8.06287 13.9051 6.46191 11.9173 6.46191C9.92958 6.46191 8.31909 8.06287 8.31909 10.0388C8.31909 11.2316 8.9067 12.2888 9.81061 12.9393C9.80481 12.9422 9.799 12.9436 9.7932 12.9465C9.1432 13.2192 8.55994 13.61 8.05938 14.109C7.5613 14.6031 7.16419 15.1885 6.88997 15.8326C6.62056 16.4632 6.47528 17.1394 6.46195 17.8244C6.46156 17.8398 6.46428 17.8551 6.46994 17.8694C6.4756 17.8837 6.48409 17.8969 6.49491 17.9078C6.50572 17.9189 6.51865 17.9277 6.53292 17.9336C6.54719 17.9396 6.56253 17.9427 6.57802 17.9427H7.44856C7.5124 17.9427 7.56318 17.8922 7.56463 17.8302C7.59365 16.7167 8.04342 15.6739 8.83851 14.8836C9.66117 14.0658 10.7537 13.6157 11.9173 13.6157C13.081 13.6157 14.1734 14.0658 14.9961 14.8836C15.7912 15.6739 16.241 16.7167 16.2699 17.8302C16.2714 17.8936 16.3222 17.9427 16.386 17.9427H17.2566C17.2721 17.9427 17.2874 17.9396 17.3017 17.9336C17.316 17.9277 17.3289 17.9189 17.3398 17.9078C17.3505 17.8969 17.359 17.8837 17.3646 17.8694C17.3703 17.8551 17.3731 17.8398 17.3726 17.8244C17.3581 17.1349 17.2145 16.4643 16.9447 15.8311ZM11.9173 12.5197C11.2514 12.5197 10.6246 12.2615 10.153 11.7927C9.68148 11.3239 9.42177 10.7008 9.42177 10.0388C9.42177 9.37682 9.68148 8.75374 10.153 8.28499C10.6246 7.81624 11.2514 7.55807 11.9173 7.55807C12.5832 7.55807 13.21 7.81624 13.6816 8.28499C14.1532 8.75374 14.4128 9.37682 14.4128 10.0388C14.4128 10.7008 14.1532 11.3239 13.6816 11.7927C13.21 12.2615 12.5832 12.5197 11.9173 12.5197Z" fill="#444444" stroke="#444444" stroke-width="0.5"/>
    </g>
    <defs>
        <clipPath id="clip0_2666_20553">
            <rect width="24" height="24" fill="white"/>
        </clipPath>
    </defs>
</svg>
