<svg xmlns="http://www.w3.org/2000/svg" width="24" height="24" viewBox="0 0 24 24" fill="none">
    <g clip-path="url(#clip0_536_8149)">
        <path d="M20.8505 4.22445L17.212 0.585942C16.834 0.207915 16.3331 0 15.7992 0H4.5623C3.45657 0 2.56348 0.897815 2.56348 1.99882V22.0012C2.56348 23.1022 3.46129 24 4.5623 24H19.4377C20.5387 24 21.4365 23.1022 21.4365 22.0012V5.63733C21.4365 5.10337 21.2286 4.60248 20.8505 4.22445ZM17.0183 2.27761L19.1589 4.41819H17.0183V2.27761ZM20.1039 22.0059C20.1039 22.3745 19.8062 22.6722 19.4377 22.6722H4.5623C4.19372 22.6722 3.89602 22.3745 3.89602 22.0059V1.99882C3.89602 1.63024 4.19372 1.33255 4.5623 1.33255H15.6857V5.08447C15.6857 5.45304 15.9834 5.75074 16.352 5.75074H20.1039V22.0059Z" fill="#333333"/>
        <path d="M9.80746 19.5487H5.74367C5.37509 19.5487 5.07739 19.8464 5.07739 20.215C5.07739 20.5836 5.37509 20.8813 5.74367 20.8813H9.80746C10.176 20.8813 10.4737 20.5836 10.4737 20.215C10.4785 19.8464 10.176 19.5487 9.80746 19.5487Z" fill="#333333"/>
        <path d="M13.876 15.4424H5.74843C5.37985 15.4424 5.08215 15.7401 5.08215 16.1087C5.08215 16.4772 5.37985 16.7749 5.74843 16.7749H13.876C14.2446 16.7749 14.5423 16.4772 14.5423 16.1087C14.5423 15.7401 14.2446 15.4424 13.876 15.4424Z" fill="#333333"/>
        <path d="M18.2517 11.3361H5.74843C5.37985 11.3361 5.08215 11.6338 5.08215 12.0023C5.08215 12.3709 5.37985 12.6686 5.74843 12.6686H18.2564C18.625 12.6686 18.9227 12.3709 18.9227 12.0023C18.9179 11.6338 18.6203 11.3361 18.2517 11.3361Z" fill="#333333"/>
        <path d="M18.2564 7.2298H5.74843C5.37985 7.2298 5.08215 7.52749 5.08215 7.89607C5.08215 8.26465 5.37985 8.56234 5.74843 8.56234H18.2564C18.625 8.56234 18.9227 8.26465 18.9227 7.89607C18.9227 7.52749 18.625 7.2298 18.2564 7.2298Z" fill="#333333"/>
        <path d="M10.4596 3.12347H5.74843C5.37985 3.12347 5.08215 3.42117 5.08215 3.78975C5.08215 4.15832 5.37985 4.45602 5.74843 4.45602H10.4596C10.8282 4.45602 11.1259 4.15832 11.1259 3.78975C11.1259 3.42117 10.8282 3.12347 10.4596 3.12347Z" fill="#333333"/>
        <path d="M18.332 16.0614C18.0673 15.7968 17.6468 15.7968 17.3869 16.0614L13.824 19.6243L12.1843 17.9847C11.9244 17.7248 11.5039 17.7248 11.2392 17.9847C10.9793 18.2445 10.9793 18.6651 11.2392 18.9297L13.3515 21.0419C13.4838 21.1743 13.6539 21.2357 13.824 21.2357C13.9941 21.2357 14.1642 21.1695 14.2965 21.0419L18.332 17.0065C18.5919 16.7466 18.5919 16.3261 18.332 16.0614Z" fill="#333333"/>
    </g>
    <defs>
        <clipPath id="clip0_536_8149">
            <rect width="24" height="24" fill="white"/>
        </clipPath>
    </defs>
</svg>
