<svg xmlns="http://www.w3.org/2000/svg" width="13" height="19" viewBox="0 0 13 19" fill="none">
    <g clip-path="url(#clip0_1755_42233)">
        <path d="M5.75466 1.27113C3.88632 1.62691 2.44644 3.07066 2.07278 4.96817C2.01797 5.24661 1.99306 5.6488 1.99306 6.28816V7.21629L1.5596 7.23694C0.996615 7.26788 0.672769 7.4071 0.373835 7.75256C-0.0147782 8.20115 0.00016851 7.97426 0.00016851 12.8727C0.00016851 17.7454 -0.0197604 17.4876 0.373835 17.9413C0.488428 18.0754 0.692696 18.2404 0.827217 18.3126L1.07135 18.4415L6.42726 18.457C11.2002 18.4673 11.8031 18.4621 12.0173 18.3848C12.3013 18.2868 12.7198 17.9156 12.8693 17.6216L12.9789 17.4102L12.9938 12.9552C13.0088 7.93304 13.0287 8.21148 12.6301 7.75256C12.3362 7.41739 12.0123 7.27302 11.4593 7.23176L11.0358 7.20082L11.0059 6.11801C10.9711 4.94239 10.9162 4.63817 10.6123 3.94723C10.149 2.89019 9.21728 1.97238 8.1511 1.53409C7.43863 1.24019 6.48204 1.13191 5.75466 1.27113ZM7.29417 2.63754C7.87208 2.78707 8.33543 3.06551 8.77389 3.5141C9.1924 3.94207 9.44148 4.36489 9.62084 4.93207C9.71553 5.23629 9.73545 5.44256 9.75536 6.25723L9.77532 7.22662H6.50199H3.22865L3.24858 6.25723C3.27349 5.39097 3.28844 5.25175 3.40801 4.87536C3.93613 3.18926 5.655 2.20441 7.29417 2.63754ZM11.6984 8.62913C11.7433 8.67554 11.7582 9.68616 11.7582 12.8521C11.7582 16.6368 11.7532 17.0184 11.6785 17.0802C11.554 17.1834 1.52473 17.1937 1.36032 17.0906L1.24572 17.0235V12.8933C1.24572 10.1451 1.26067 8.73223 1.29555 8.66522C1.34537 8.56726 1.45996 8.56726 6.49202 8.56726C10.428 8.56726 11.6536 8.58273 11.6984 8.62913Z" fill="#545B5B"/>
        <path d="M5.71676 10.8099C4.95971 11.0891 4.76316 11.8247 5.3164 12.3132L5.51295 12.4851L5.35281 13.4462C5.26546 13.9777 5.2072 14.4341 5.2363 14.4609C5.2873 14.5253 7.35469 14.5253 7.40569 14.4609C7.42753 14.4341 7.37653 13.9777 7.28918 13.4462L7.1363 12.4797L7.31833 12.3132C7.88615 11.8193 7.68959 11.0837 6.92523 10.8099C6.51755 10.6649 6.11718 10.6649 5.71676 10.8099Z" fill="#545B5B"/>
    </g>
    <defs>
        <clipPath id="clip0_1755_42233">
            <rect width="13" height="18" fill="white" transform="translate(0 0.460938)"/>
        </clipPath>
    </defs>
</svg>
