<svg xmlns="http://www.w3.org/2000/svg" width="24" height="24" viewBox="0 0 24 24" fill="none">
    <g id="Group">
        <path id="Vector" d="M1.21777 20.3267V6.68766C1.24545 6.68906 1.27634 6.69017 1.30744 6.69017H5.00622C6.3315 6.69017 7.40795 5.61373 7.40795 4.28845V0.589662C7.40795 0.559942 7.40724 0.529969 7.40579 0.5H9.30744H16.5493C17.0185 0.5 17.3996 0.881114 17.3996 1.35035V10.8538C17.1086 10.8135 16.812 10.7929 16.511 10.7929C15.0795 10.7929 13.7539 11.263 12.6842 12.0565H4.86072C4.23231 12.0565 3.72256 12.5662 3.72256 13.1946C3.72256 13.8231 4.23233 14.3328 4.86072 14.3328H10.7623C10.5658 14.7214 10.4075 15.1326 10.2925 15.5613C10.0975 15.4047 9.84993 15.3111 9.58054 15.3111H4.85814C4.22974 15.3111 3.71998 15.8208 3.71998 16.4492C3.71998 17.0777 4.22975 17.5874 4.85814 17.5874H9.58054C9.75897 17.5874 9.92783 17.5463 10.0782 17.4731C10.1308 18.8662 10.6301 20.1466 11.4328 21.1771H9.30746H2.06812C1.59889 21.1771 1.21777 20.796 1.21777 20.3267ZM14.3029 8.59509H4.86072C4.23227 8.59509 3.72256 9.10485 3.72256 9.73325C3.72256 10.3617 4.23231 10.8714 4.86072 10.8714H14.3029C14.9314 10.8714 15.4411 10.3616 15.4411 9.73325C15.4411 9.10485 14.9314 8.59509 14.3029 8.59509Z" stroke="#545B5B"/>
        <path id="Vector_2" d="M1.30695 5.42349H5.00574C5.63369 5.42349 6.14166 4.91551 6.14166 4.28756V0.588772C6.14166 0.246717 5.86087 0.0195312 5.56987 0.0195312C5.42947 0.0195312 5.28908 0.0705842 5.17166 0.188006L0.903629 4.45348C0.546258 4.81085 0.798971 5.42349 1.30695 5.42349Z" fill="#545B5B"/>
        <path id="Vector_3" d="M21.3278 20.6923L21.0521 20.4166L20.7764 20.1409C21.3456 19.3113 21.6775 18.3081 21.6775 17.2258C21.6775 15.1428 20.4394 13.3457 18.6628 12.5263C18.5377 12.4676 18.4101 12.4165 18.2799 12.3681C18.1548 12.3221 18.0272 12.2813 17.897 12.2455C17.4554 12.123 16.9908 12.0566 16.5084 12.0566C15.717 12.0566 14.9666 12.2353 14.2978 12.5544C13.6519 12.8607 13.0802 13.2972 12.6156 13.8307C11.8217 14.7395 11.3418 15.9265 11.3418 17.2258C11.3418 19.1173 12.3629 20.7739 13.8817 21.675C14.1319 21.8231 14.3973 21.9533 14.6756 22.0579C15.2473 22.2749 15.8651 22.3949 16.5135 22.3949C16.7254 22.3949 16.9321 22.3821 17.1363 22.3566C17.9787 22.2545 18.7572 21.9507 19.4261 21.4912L19.6992 21.7695L19.9723 22.0426L21.6494 23.7197C21.8358 23.906 22.0808 24.0005 22.3258 24.0005C22.5709 24.0005 22.8159 23.906 23.0023 23.7197C23.375 23.347 23.375 22.7395 23.0023 22.3668L21.3278 20.6923ZM16.5109 13.9737C17.0061 13.9737 17.4784 14.086 17.8995 14.2851C18.0323 14.3489 18.1599 14.4204 18.2824 14.4995C18.4178 14.5863 18.5454 14.6858 18.6653 14.7905C19.3392 15.3878 19.7655 16.2582 19.7655 17.2283C19.7655 18.1983 19.3393 19.0687 18.6653 19.666C18.5454 19.7732 18.4178 19.8702 18.2824 19.957C18.1599 20.0362 18.0323 20.1076 17.8995 20.1715C17.4784 20.3706 17.0087 20.4829 16.5109 20.4829C14.7164 20.4829 13.2563 19.0228 13.2563 17.2282C13.2563 15.4338 14.7139 13.9737 16.5109 13.9737Z" fill="#545B5B"/>
    </g>
</svg>
