<svg xmlns="http://www.w3.org/2000/svg" width="24" height="24" viewBox="0 0 24 24" fill="none">
    <g id="Без-названия 1">
        <g id="Group">
            <path id="Vector" d="M6.89357 5.10597C6.85846 5.14107 6.82974 5.18895 6.82974 5.20809C6.82974 5.23044 6.88719 5.59746 6.95102 6.02192L7.07229 6.79746H6.07974C5.10315 6.79746 5.08081 6.79746 4.99464 6.86767L4.90527 6.93788L4.92442 7.28895C5.02655 9.12724 6.06059 10.8187 7.61804 11.6996C7.86059 11.8368 7.88612 11.8592 7.91485 11.9804C8.2691 13.3943 9.1723 14.7028 10.2414 15.3538L10.4744 15.4943L10.4585 15.8613C10.4425 16.2794 10.3723 16.5315 10.1968 16.806C9.95421 17.1858 9.56485 17.4379 9.15953 17.4762C8.83081 17.5081 8.84038 17.4889 8.84038 18.2262C8.84038 18.756 8.84676 18.8645 8.89144 18.906C8.93612 18.9506 9.26166 18.957 12 18.957C14.7383 18.957 15.0638 18.9506 15.1085 18.906C15.1531 18.8645 15.1595 18.756 15.1595 18.2262C15.1595 17.4921 15.1659 17.5081 14.8404 17.4762C14.2851 17.4219 13.768 16.9496 13.6117 16.356C13.5829 16.2443 13.5638 16.0304 13.5638 15.8262V15.4879L13.8287 15.3124C14.9074 14.5943 15.7372 13.3655 16.0851 11.9804C16.1138 11.8592 16.1393 11.8368 16.3819 11.6996C17.9393 10.8219 18.9734 9.12724 19.0755 7.28895L19.0946 6.93788L19.0053 6.86767C18.9191 6.79746 18.8968 6.79746 17.917 6.79746H16.918L16.9308 6.70809C16.9404 6.66022 16.9978 6.30597 17.0585 5.9198C17.1638 5.23363 17.167 5.21448 17.1095 5.13788L17.0521 5.05809L12.0031 5.04852C6.99251 5.04214 6.9574 5.04214 6.89357 5.10597ZM12.134 6.85171C12.1627 6.88363 12.3319 7.20597 12.5138 7.56661L12.8393 8.22405L13.5606 8.32618C13.9563 8.38363 14.3138 8.45065 14.3521 8.47618C14.4351 8.53043 14.4702 8.62937 14.4319 8.70278C14.4127 8.7315 14.1606 8.9932 13.8702 9.28363L13.3404 9.81341L13.4521 10.4677C13.5925 11.2975 13.5957 11.3549 13.5 11.4315C13.4521 11.4698 13.3978 11.4858 13.3531 11.4762C13.3117 11.4634 12.9989 11.307 12.6574 11.1219C12.3159 10.9368 12.0191 10.7868 11.9968 10.7868C11.9776 10.7868 11.6776 10.9368 11.3297 11.1219C10.6468 11.4826 10.5383 11.5145 10.4489 11.3772C10.401 11.3038 10.4074 11.2528 10.5223 10.5506L10.65 9.80065L10.1106 9.26448C9.81378 8.97086 9.56485 8.69639 9.55527 8.65809C9.52974 8.56873 9.59038 8.46341 9.67974 8.44107C9.71804 8.4315 10.0659 8.37724 10.4521 8.3198L11.1542 8.21767L11.4893 7.56022C11.6744 7.19639 11.8436 6.87724 11.8691 6.84852C11.9266 6.7815 12.0734 6.78469 12.134 6.85171ZM7.16166 7.31448C7.19357 7.49001 7.78719 11.2719 7.78719 11.3038C7.78719 11.3996 7.07868 10.8379 6.69889 10.4421C5.92655 9.63788 5.4574 8.59746 5.34251 7.42618L5.32336 7.21235H6.23293H7.14251L7.16166 7.31448ZM18.6542 7.44214C18.5776 8.27831 18.2808 9.11129 17.818 9.80703C17.4829 10.3113 16.8478 10.9336 16.3436 11.2464L16.2063 11.3358L16.2255 11.2113C16.2989 10.7485 16.851 7.2315 16.851 7.22512C16.851 7.21873 17.2627 7.21235 17.7638 7.21235H18.6766L18.6542 7.44214ZM14.9393 11.9932C15.0319 12.0698 15.0287 12.1943 14.917 12.5453C14.7287 13.1453 14.4319 13.6304 13.9819 14.0741C13.6595 14.3932 13.3148 14.6262 13.184 14.6102C13.0819 14.5975 12.9766 14.4538 13.0053 14.3645C13.0148 14.3262 13.1297 14.2272 13.2574 14.1411C13.8893 13.7134 14.3266 13.1166 14.534 12.4017C14.5819 12.2453 14.617 12.1017 14.617 12.0762C14.617 12.0251 14.7414 11.9358 14.8117 11.9358C14.8404 11.9358 14.8978 11.9613 14.9393 11.9932Z" fill="#545B5B"/>
        </g>
    </g>
</svg>
