<svg xmlns="http://www.w3.org/2000/svg" width="14" height="19" viewBox="0 0 14 19" fill="none">
    <g clip-path="url(#clip0_1755_42162)">
        <path d="M6.4221 1.25806C5.06618 1.50724 3.98145 2.16852 3.28339 3.17003C2.85151 3.78339 2.51504 4.68906 2.57028 5.08199C2.61046 5.35991 2.87662 5.58992 3.15785 5.58992C3.56462 5.58992 3.74039 5.42223 3.86092 4.91908C3.89105 4.77532 4.02162 4.45426 4.14717 4.20508C4.55394 3.39525 5.29217 2.81543 6.24131 2.57104C6.57276 2.48479 6.73347 2.47041 7.19547 2.48479C8.10947 2.52312 8.75229 2.78668 9.38001 3.39046C9.7617 3.75464 9.98769 4.09487 10.1785 4.59322L10.3141 4.94302V6.50041V8.05776L5.91992 8.08173L1.52572 8.10567L1.31982 8.21111C1.00344 8.37403 0.832693 8.52738 0.671991 8.81008L0.521334 9.06406L0.506268 13.2043C0.491202 17.8668 0.471114 17.6128 0.867847 18.0345C0.988373 18.1639 1.19427 18.3172 1.32987 18.3843L1.57594 18.5041L7.01972 18.5185L12.4635 18.528L12.7447 18.4083C13.1163 18.2453 13.3323 18.0393 13.508 17.6895L13.6537 17.402V13.324C13.6537 8.73342 13.6738 8.99218 13.267 8.56091C12.9305 8.2063 12.7196 8.11526 12.1471 8.08173L11.67 8.05776L11.6399 6.47643C11.6097 4.67948 11.5796 4.50218 11.1678 3.69714C10.5903 2.55187 9.60599 1.766 8.29527 1.39224C7.93874 1.29161 7.72781 1.26285 7.20051 1.25327C6.84394 1.24369 6.49242 1.24848 6.4221 1.25806ZM12.2928 9.34679C12.3329 9.3947 12.343 10.4729 12.3379 13.3336L12.3229 17.2582L7.10006 17.2726C2.23382 17.2822 1.87223 17.2774 1.81699 17.2007C1.76677 17.1384 1.75171 16.2807 1.75171 13.3049C1.75171 9.93138 1.76175 9.48095 1.83206 9.3851L1.90739 9.27969H7.06993C11.3637 9.27969 12.2425 9.28929 12.2928 9.34679Z" fill="#545B5B"/>
        <path d="M6.53623 11.5609C5.88857 11.6567 5.5 11.9825 5.5 12.4279C5.5 12.6722 5.53051 12.7201 5.89623 13.0459C6.01051 13.1512 6.01051 13.2087 5.88097 13.8793C5.8048 14.2721 5.72097 14.6697 5.69811 14.7511L5.66 14.9092H6.84097C8.00669 14.9092 8.01429 14.9092 8.01429 14.799C8.01429 14.7415 7.94571 14.3392 7.86194 13.9033L7.70954 13.1177L7.9 12.9932C8.13623 12.8351 8.24286 12.6531 8.24286 12.3896C8.24286 12.1453 8.15909 12.0256 7.86954 11.8292C7.51143 11.5801 7.05429 11.4891 6.53623 11.5609Z" fill="#545B5B"/>
    </g>
    <defs>
        <clipPath id="clip0_1755_42162">
            <rect width="13.1538" height="18" fill="white" transform="translate(0.5 0.460938)"/>
        </clipPath>
    </defs>
</svg>
