<svg xmlns="http://www.w3.org/2000/svg" width="24" height="24" viewBox="0 0 24 24" fill="none">
    <path d="M8.25 15C10.9424 15 13.125 12.8174 13.125 10.125C13.125 7.43261 10.9424 5.25 8.25 5.25C5.55761 5.25 3.375 7.43261 3.375 10.125C3.375 12.8174 5.55761 15 8.25 15Z" stroke="#545B5B" stroke-width="2" stroke-miterlimit="10"/>
    <path d="M14.5703 5.43076C15.2408 5.24184 15.9441 5.1988 16.6326 5.30454C17.3212 5.41029 17.9791 5.66236 18.562 6.04377C19.1449 6.42519 19.6393 6.92709 20.012 7.51568C20.3846 8.10427 20.6268 8.76588 20.7221 9.45594C20.8175 10.146 20.764 10.8485 20.565 11.5161C20.366 12.1837 20.0263 12.8009 19.5687 13.3262C19.1111 13.8514 18.5463 14.2726 17.9123 14.5611C17.2782 14.8497 16.5897 14.9991 15.8931 14.9992" stroke="#545B5B" stroke-width="2" stroke-linecap="round" stroke-linejoin="round"/>
    <path d="M1.5 18.5059C2.26138 17.4229 3.27215 16.539 4.44698 15.9288C5.62182 15.3186 6.92623 15.0001 8.25008 15C9.57393 14.9999 10.8784 15.3184 12.0532 15.9285C13.2281 16.5386 14.239 17.4225 15.0004 18.5054" stroke="#545B5B" stroke-width="2" stroke-linecap="round" stroke-linejoin="round"/>
    <path d="M15.8926 15C17.2166 14.999 18.5213 15.3171 19.6962 15.9273C20.8712 16.5375 21.8819 17.4218 22.6426 18.5054" stroke="#545B5B" stroke-width="2" stroke-linecap="round" stroke-linejoin="round"/>
</svg>
