<svg xmlns="http://www.w3.org/2000/svg" width="24" height="24" viewBox="0 0 24 24" fill="none">
    <g id="Group">
        <path id="Vector" d="M1.21796 20.3267V6.68766C1.24563 6.68906 1.27652 6.69017 1.30762 6.69017H5.00641C6.33169 6.69017 7.40813 5.61373 7.40813 4.28845V0.589662C7.40813 0.559942 7.40742 0.529969 7.40597 0.5H9.30762H16.5495C17.0187 0.5 17.3998 0.881114 17.3998 1.35035V10.8538C17.1088 10.8135 16.8122 10.7929 16.5112 10.7929C15.0797 10.7929 13.7541 11.263 12.6843 12.0565H4.8609C4.2325 12.0565 3.72274 12.5662 3.72274 13.1946C3.72274 13.8231 4.23251 14.3328 4.8609 14.3328H10.7625C10.566 14.7214 10.4077 15.1326 10.2926 15.5613C10.0977 15.4047 9.85011 15.3111 9.58073 15.3111H4.85833C4.22992 15.3111 3.72016 15.8208 3.72016 16.4492C3.72016 17.0777 4.22993 17.5874 4.85833 17.5874H9.58073C9.75916 17.5874 9.92802 17.5463 10.0784 17.4731C10.131 18.8662 10.6302 20.1466 11.4329 21.1771H9.30764H2.06831C1.59908 21.1771 1.21796 20.796 1.21796 20.3267ZM14.3031 8.59509H4.8609C4.23246 8.59509 3.72274 9.10485 3.72274 9.73325C3.72274 10.3617 4.2325 10.8714 4.8609 10.8714H14.3031C14.9316 10.8714 15.4413 10.3616 15.4413 9.73325C15.4413 9.10485 14.9316 8.59509 14.3031 8.59509Z" stroke="#545B5B"/>
        <path id="Vector_2" d="M1.30762 5.42438H5.00641C5.63436 5.42438 6.14234 4.9164 6.14234 4.28845V0.589664C6.14234 0.24761 5.86154 0.0204239 5.57054 0.0204239C5.43015 0.0204239 5.28975 0.0714769 5.17233 0.188899L0.904301 4.45437C0.54693 4.81174 0.799642 5.42438 1.30762 5.42438Z" fill="#545B5B"/>
        <path id="Vector_3" d="M21.328 20.6918L21.0523 20.4161L20.7767 20.1404C21.3459 19.3108 21.6777 18.3076 21.6777 17.2253C21.6777 15.1423 20.4397 13.3452 18.6631 12.5258C18.538 12.4671 18.4103 12.4161 18.2802 12.3676C18.1551 12.3216 18.0274 12.2808 17.8973 12.245C17.4556 12.1225 16.9911 12.0562 16.5086 12.0562C15.7173 12.0562 14.9668 12.2348 14.298 12.5539C13.6522 12.8602 13.0804 13.2967 12.6158 13.8302C11.822 14.739 11.3421 15.926 11.3421 17.2253C11.3421 19.1168 12.3631 20.7734 13.8819 21.6745C14.1321 21.8226 14.3976 21.9528 14.6759 22.0574C15.2476 22.2744 15.8654 22.3944 16.5138 22.3944C16.7256 22.3944 16.9324 22.3816 17.1366 22.3561C17.9789 22.254 18.7575 21.9502 19.4263 21.4907L19.6994 21.769L19.9726 22.0421L21.6497 23.7192C21.836 23.9055 22.081 24 22.3261 24C22.5712 24 22.8162 23.9055 23.0026 23.7192C23.3752 23.3465 23.3752 22.739 23.0026 22.3663L21.328 20.6918ZM16.5112 13.9732C17.0064 13.9732 17.4786 14.0855 17.8998 14.2846C18.0326 14.3484 18.1602 14.4199 18.2827 14.499C18.418 14.5858 18.5457 14.6854 18.6656 14.79C19.3395 15.3873 19.7658 16.2578 19.7658 17.2278C19.7658 18.1978 19.3395 19.0683 18.6656 19.6655C18.5457 19.7728 18.418 19.8698 18.2827 19.9565C18.1602 20.0357 18.0326 20.1072 17.8998 20.171C17.4786 20.3701 17.0089 20.4824 16.5112 20.4824C14.7167 20.4824 13.2565 19.0223 13.2565 17.2277C13.2565 15.4333 14.7141 13.9732 16.5112 13.9732Z" fill="#545B5B"/>
    </g>
</svg>
