<svg xmlns="http://www.w3.org/2000/svg" width="24" height="20" viewBox="0 0 24 20" fill="none">
    <g id="Group">
        <path id="Vector" d="M7.3852 10.6576C5.9308 10.6576 4.75 9.47437 4.75 8.01997C4.75 6.56557 5.9332 5.38477 7.3852 5.38477C8.8396 5.38477 10.0204 6.56797 10.0204 8.01997C10.0204 9.47437 8.8372 10.6576 7.3852 10.6576ZM7.3852 6.38317C6.4828 6.38317 5.7484 7.11757 5.7484 8.01997C5.7484 8.92477 6.4828 9.65916 7.3852 9.65916C8.2876 9.65916 9.022 8.92477 9.022 8.01997C9.022 7.11517 8.2876 6.38317 7.3852 6.38317Z" fill="#545B5B"/>
        <path id="Vector_2" d="M10.9348 14.2262C10.6588 14.2262 10.4356 14.003 10.4356 13.727C10.4356 12.0446 9.06758 10.6742 7.38278 10.6742C5.70038 10.6742 4.33238 12.0446 4.33238 13.727C4.33238 14.003 4.10918 14.2262 3.83318 14.2262C3.55718 14.2262 3.33398 14.003 3.33398 13.727C3.33398 11.4926 5.15078 9.67578 7.38278 9.67578C9.61718 9.67578 11.434 11.4926 11.434 13.727C11.434 14.003 11.2108 14.2262 10.9348 14.2262Z" fill="#545B5B"/>
        <path id="Vector_3" d="M21.1946 19.3337H2.80583C1.39223 19.3337 0.240234 18.1289 0.240234 16.6481V3.34966C0.240234 1.86886 1.39223 0.664062 2.80583 0.664062H10.4594C10.7354 0.664062 10.9586 0.887263 10.9586 1.16326C10.9586 1.43926 10.7354 1.66246 10.4594 1.66246H2.80583C1.94183 1.66246 1.23863 2.41846 1.23863 3.34966V16.6481C1.23863 17.5793 1.94183 18.3353 2.80583 18.3353H21.1946C22.0586 18.3353 22.7618 17.5793 22.7618 16.6481V4.96966C22.7618 4.04086 22.0586 3.28246 21.1946 3.28246H11.8466C11.5706 3.28246 11.3474 3.05926 11.3474 2.78326C11.3474 2.50726 11.5706 2.28406 11.8466 2.28406H21.1946C22.6082 2.28406 23.7602 3.48886 23.7602 4.96966V16.6481C23.7602 18.1289 22.6082 19.3337 21.1946 19.3337Z" fill="#545B5B"/>
        <path id="Vector_4" d="M20.4127 8.50524H13.7551C13.4791 8.50524 13.2559 8.28204 13.2559 8.00604C13.2559 7.73004 13.4791 7.50684 13.7551 7.50684H20.4151C20.6911 7.50684 20.9143 7.73004 20.9143 8.00604C20.9119 8.28204 20.6887 8.50524 20.4127 8.50524Z" fill="#545B5B"/>
        <path id="Vector_5" d="M20.4127 11.308H13.7551C13.4791 11.308 13.2559 11.0848 13.2559 10.8088C13.2559 10.5328 13.4791 10.3096 13.7551 10.3096H20.4151C20.6911 10.3096 20.9143 10.5328 20.9143 10.8088C20.9119 11.0848 20.6887 11.308 20.4127 11.308Z" fill="#545B5B"/>
        <path id="Vector_6" d="M20.4127 14.1117H13.7551C13.4791 14.1117 13.2559 13.8885 13.2559 13.6125C13.2559 13.3365 13.4791 13.1133 13.7551 13.1133H20.4151C20.6911 13.1133 20.9143 13.3365 20.9143 13.6125C20.9143 13.8885 20.6887 14.1117 20.4127 14.1117Z" fill="#545B5B"/>
        <path id="Vector_7" d="M11.8445 3.27722C11.5685 3.27722 11.3453 3.05402 11.3453 2.77802V2.63162C11.3453 2.09882 10.9493 1.66442 10.4621 1.66442C10.1861 1.66442 9.96289 1.44122 9.96289 1.16522C9.96289 0.889216 10.1861 0.666016 10.4621 0.666016C11.4989 0.666016 12.3437 1.54682 12.3437 2.63162V2.78042C12.3437 3.05402 12.1181 3.27722 11.8445 3.27722Z" fill="#545B5B"/>
    </g>
</svg>
