<svg xmlns="http://www.w3.org/2000/svg" width="19" height="19" viewBox="0 0 19 19" fill="none">
    <g clip-path="url(#clip0_1734_42101)">
        <path d="M9.5 0.431641C4.5368 0.431641 0.5 4.46844 0.5 9.43164C0.5 14.3948 4.5368 18.4316 9.5 18.4316C14.4632 18.4316 18.5 14.3948 18.5 9.43164C18.5 4.46844 14.4632 0.431641 9.5 0.431641ZM9.5 17.2316C5.1992 17.2316 1.7 13.7324 1.7 9.43164C1.7 5.13084 5.1992 1.63164 9.5 1.63164C13.8008 1.63164 17.3 5.13084 17.3 9.43164C17.3 13.7324 13.8008 17.2316 9.5 17.2316Z" fill="#545B5B"/>
        <path d="M8.30636 11.055L5.13356 7.88216L4.28516 8.73056L8.31236 12.7578L14.7276 6.25256L13.8732 5.41016L8.30636 11.055Z" fill="#545B5B"/>
    </g>
    <defs>
        <clipPath id="clip0_1734_42101">
            <rect width="18" height="18" fill="white" transform="translate(0.5 0.431641)"/>
        </clipPath>
    </defs>
</svg>
