<svg xmlns="http://www.w3.org/2000/svg" width="25" height="25" viewBox="0 0 25 25" fill="none">
    <g clip-path="url(#clip0_1734_42104)">
        <path fill-rule="evenodd" clip-rule="evenodd" d="M12.5996 3.41406C17.5669 3.41406 21.5996 7.44681 21.5996 12.4141C21.5996 17.3813 17.5669 21.4141 12.5996 21.4141C7.63236 21.4141 3.59961 17.3813 3.59961 12.4141C3.59961 7.44681 7.63236 3.41406 12.5996 3.41406ZM6.74361 7.71344C5.70898 9.00081 5.08948 10.6354 5.08948 12.4141C5.08948 16.5589 8.45473 19.9242 12.5996 19.9242C14.3782 19.9242 16.0129 19.3047 17.2999 18.2701L6.74361 7.71344ZM18.3866 17.1991C19.4629 15.8993 20.1101 14.2317 20.1101 12.4141C20.1101 8.26881 16.7449 4.90356 12.5996 4.90356C10.782 4.90356 9.11436 5.55081 7.81461 6.62706L18.3866 17.1991Z" fill="#545B5B"/>
    </g>
    <defs>
        <clipPath id="clip0_1734_42104">
            <rect width="24" height="24" fill="white" transform="translate(0.5 0.431641)"/>
        </clipPath>
    </defs>
</svg>
