<svg xmlns="http://www.w3.org/2000/svg" width="297" height="632" viewBox="0 0 297 632" fill="none">
    <g opacity="0.2">
        <path d="M43.323 6.77425C41.6904 8.71253 41.3948 9.68167 41.7636 11.6945C41.986 13.1109 42.729 14.9001 43.3962 15.6456C45.2538 17.733 49.78 17.5094 52.3021 15.2729C56.755 11.4709 53.7882 4.38867 47.7759 4.38867C45.921 4.38867 44.8064 4.98507 43.323 6.77425Z" fill="#EAB65B"/>
        <path d="M-13.1509 37.1869C-17.753 39.0505 -19.4615 46.2074 -16.2696 50.2331C-14.2655 52.8423 -10.3333 54.4825 -7.65932 53.8859C-0.461943 52.1713 1.98691 41.5853 -4.02266 37.9325C-6.47421 36.367 -10.4797 36.0687 -13.1509 37.1869Z" fill="#1F82FF"/>
        <path d="M151.826 57.4665C148.707 59.9267 148.783 66.7853 152.048 68.4998C153.83 69.4691 157.689 69.4691 159.468 68.4998C162.736 66.7106 162.809 59.1067 159.468 57.3175C157.54 56.2739 153.309 56.4229 151.826 57.4665Z" fill="#EAB65B"/>
        <path d="M84.8082 66.4874C79.9838 70.8858 80.8 78.117 86.4408 80.8008C89.4835 82.2174 91.4876 82.2174 94.6036 80.7264C97.7223 79.2353 99.3549 76.3278 99.3549 72.153C99.3549 69.6932 98.9074 68.6493 96.8301 66.562C94.6768 64.3999 93.7873 64.0272 90.8937 64.0272C88.0733 64.0272 87.0347 64.4745 84.8082 66.4874Z" fill="#1F82FF"/>
        <path d="M17.7188 93.1751C9.77564 96.3808 7.54916 107.19 13.5614 113.602C23.7284 124.411 40.7238 110.247 32.4119 97.8718C29.3691 93.3244 22.6165 91.2369 17.7188 93.1751Z" fill="#EAB65B"/>
        <path d="M172.307 122.546C168.076 124.336 166.37 130.3 168.743 134.847C170.303 137.829 172.678 139.32 176.017 139.32C183.512 139.32 187.743 132.312 183.957 126.125C181.362 121.875 176.982 120.459 172.307 122.546Z" fill="#1F82FF"/>
        <path d="M96.7585 123.964C94.0141 125.157 90.5998 129.033 90.0059 131.568C89.1896 134.699 90.1523 140.514 91.7876 142.825C96.6853 149.683 108.707 148.789 112.271 141.259C114.942 135.519 113.233 128.735 108.113 124.933C105.591 123.069 99.728 122.547 96.7585 123.964Z" fill="#EAB65B"/>
        <path d="M237.392 140.813C235.239 142.975 235.312 148.417 237.539 150.504C240.137 152.89 244.218 152.517 246.667 149.61C248.97 146.851 248.82 143.869 246.149 141.037C244.072 138.8 239.543 138.651 237.392 140.813Z" fill="#EAB65B"/>
        <path d="M31.8208 142.825C27.0695 144.54 21.2823 150.653 19.5738 155.648C17.9412 160.568 18.386 166.83 20.5392 171.154C24.2491 178.385 33.2309 183.231 40.949 182.262C51.5607 180.845 58.7608 172.719 58.834 162.059C58.9831 147.447 45.6975 137.979 31.8208 142.825Z" fill="#1F82FF"/>
        <path d="M90.9683 180.624C86.4422 182.264 82.6563 185.172 80.2075 188.899C74.7891 197.099 75.8305 206.642 82.9547 214.097C87.3317 218.793 90.6727 220.21 97.5013 220.21C102.695 220.21 103.956 219.912 107.446 217.973C112.121 215.364 115.237 211.413 116.796 206.195C119.096 198.292 117.464 191.732 111.676 185.843C105.96 180.102 98.0193 178.164 90.9683 180.624Z" fill="#1F82FF"/>
        <path d="M160.581 186.959C148.038 192.774 151.379 210.368 164.961 210.368C172.234 210.368 177.427 205.299 177.427 198.291C177.427 192.625 174.978 188.898 169.636 186.661C166.148 185.245 164.218 185.245 160.581 186.959Z" fill="#EAB65B"/>
        <path d="M231.008 213.795C228.264 214.988 225.517 219.014 225.517 221.772C225.517 227.139 229.007 231.016 233.904 231.016C242.141 231.016 246.222 221.623 240.508 215.882C238.208 213.572 233.755 212.602 231.008 213.795Z" fill="#1F82FF"/>
        <path d="M126.519 238.176C121.323 239.816 115.46 245.854 113.903 251.147C111.899 258.006 112.716 263.075 116.797 269.039C123.848 279.253 139.729 280.223 148.19 270.977C156.279 262.181 154.72 247.494 145.071 240.934C139.135 236.834 133.494 236.014 126.519 238.176Z" fill="#1F82FF"/>
        <path d="M285.262 257.482C281.921 260.762 283.108 266.13 287.488 267.994C290.604 269.261 292.907 268.515 295.206 265.534C299.955 259.57 290.604 252.04 285.262 257.482Z" fill="#EAB65B"/>
        <path d="M189.007 267.547C183.366 270.604 181.066 278.133 184.109 283.872C186.631 288.868 189.083 290.285 194.721 290.285C199.99 290.285 202.365 289.018 205.335 284.619C206.818 282.532 207.041 281.339 206.818 277.759C206.151 268.367 197.245 263.223 189.007 267.547Z" fill="#EAB65B"/>
        <path d="M142.922 304.374C136.166 306.908 130.824 312.501 129.042 318.987C125.555 331.51 135.721 344.332 149.156 344.332C166.447 344.332 175.502 323.833 163.998 310.637C158.729 304.671 149.452 301.915 142.922 304.374Z" fill="#1F82FF"/>
        <path d="M242.661 318.614C236.427 323.981 239.247 333.374 247.486 334.344C253.495 335.09 258.469 329.2 256.763 323.384C254.905 317.124 247.486 314.588 242.661 318.614Z" fill="#1F82FF"/>
        <path d="M191.234 355.513C187.226 357.676 185.222 361.029 184.853 365.876C184.628 369.305 184.853 370.499 186.336 372.585C189.081 376.612 191.606 378.102 196.354 378.475C199.918 378.698 201.105 378.475 203.183 376.985C207.562 374.002 208.824 371.615 208.824 366.322C208.824 361.256 207.709 358.943 203.777 355.963C200.956 353.873 194.722 353.576 191.234 355.513Z" fill="#EAB65B"/>
        <path d="M127.11 371.918C122.73 373.261 117.756 377.36 115.383 381.61C113.379 385.187 113.081 386.38 113.081 391.3C113.081 397.266 114.345 400.695 118.277 405.315C120.653 408.149 126.811 411.281 131.338 411.875C138.76 412.921 147.666 407.925 151.525 400.695C153.825 396.296 153.825 386.977 151.525 382.653C149.372 378.627 145.96 375.274 142.101 373.261C138.687 371.471 130.82 370.801 127.11 371.918Z" fill="#1F82FF"/>
        <path d="M281.034 377.135C280.364 377.585 279.475 379.001 278.954 380.418C276.877 386.828 283.927 391.747 289.048 387.274C293.351 383.548 290.607 376.391 284.966 376.391C283.483 376.391 281.701 376.765 281.034 377.135Z" fill="#EAB65B"/>
        <path d="M221.215 422.985C216.613 426.861 216.317 432.527 220.399 436.477C222.33 438.341 223.219 438.64 226.633 438.64C229.972 438.64 231.01 438.341 232.57 436.701C236.651 432.675 236.133 425.891 231.531 422.835C228.117 420.525 224.035 420.598 221.215 422.985Z" fill="#1F82FF"/>
        <path d="M90.3011 428.873C80.0582 431.707 73.3788 442.143 75.6053 451.982C77.8318 462.048 84.5112 467.938 94.3093 468.681C108.853 469.727 118.947 456.532 114.939 441.846C112.267 432.377 100.246 426.04 90.3011 428.873Z" fill="#1F82FF"/>
        <path d="M154.35 435.057C150.714 436.847 148.265 441.02 148.191 445.569C148.191 450.786 150.64 454.962 155.166 457.348C158.282 458.988 163.999 458.689 166.966 456.676C169.862 454.739 172.829 449.446 172.829 446.09C172.829 442.736 169.862 437.443 166.966 435.504C163.923 433.417 158.06 433.194 154.35 435.057Z" fill="#EAB65B"/>
        <path d="M38.131 466.672C31.4515 467.492 25.5884 471.739 22.5457 477.778C21.8026 479.194 21.0623 482.624 20.8372 485.381C20.5416 490.004 20.6907 490.9 22.9172 495.373C26.6271 502.903 32.6394 506.703 41.0978 506.779C48.8918 506.853 56.4607 501.857 59.7258 494.403C61.3584 490.75 61.4343 482.028 59.875 478.448C56.3115 470.175 47.5548 465.402 38.131 466.672Z" fill="#1F82FF"/>
        <path d="M234.503 493.136C231.683 496.712 232.721 501.409 236.653 503.496C242.739 506.628 248.38 498.726 244 493.136C242.815 491.569 241.849 491.196 239.251 491.196C236.653 491.196 235.688 491.569 234.503 493.136Z" fill="#EAB65B"/>
        <path d="M92.308 496.638C84.0693 501.258 84.2917 513.187 92.6796 517.96C98.1712 521.016 104.552 519.45 108.56 514.007C110.787 511.1 110.787 503.347 108.56 500.364C104.479 494.848 98.0952 493.358 92.308 496.638Z" fill="#EAB65B"/>
        <path d="M157.543 506.55C152.198 509.16 151.235 517.136 155.761 521.162C157.543 522.802 158.73 523.252 161.551 523.252C165.556 523.252 167.859 521.909 169.491 518.779C171.864 514.156 169.787 508.416 165.038 506.403C161.846 505.06 160.436 505.136 157.543 506.55Z" fill="#1F82FF"/>
        <path d="M15.8621 529.066C8.73793 532.496 6.28907 539.129 9.62742 546.062C13.6356 554.488 25.5842 555.008 30.9267 547.032C33.3023 543.679 33.004 536.746 30.4087 533.093C27.1436 528.47 20.833 526.756 15.8621 529.066Z" fill="#EAB65B"/>
        <path d="M65.515 563.808C63.3618 565.968 62.9902 566.865 62.9902 569.698C62.9902 579.387 76.3491 582.147 80.0589 573.201C82.3614 567.608 77.7592 561.272 71.4513 561.272C68.5578 561.272 67.6655 561.645 65.515 563.808Z" fill="#1F82FF"/>
        <path d="M144.401 575.438C140.468 578.568 141.209 584.384 145.738 586.321C148.927 587.664 151.598 587.067 153.529 584.607C155.682 581.848 155.46 578.718 152.862 576.108C150.264 573.498 147.148 573.275 144.401 575.438Z" fill="#EAB65B"/>
        <path d="M29.8912 620.986C28.0363 622.999 28.0363 627.769 29.8912 629.782C31.8953 631.945 35.8275 632.542 38.1299 631.049C41.913 628.589 42.3605 624.043 39.2418 620.91C37.1645 618.823 31.8221 618.9 29.8912 620.986Z" fill="#EAB65B"/>
    </g>
</svg>
