<svg width="24" height="24" viewBox="0 0 24 24" fill="none" xmlns="http://www.w3.org/2000/svg">
<g clip-path="url(#clip0_646_10656)">
<path fill-rule="evenodd" clip-rule="evenodd" d="M0.882812 0H23.5488C23.7969 0 24.002 0.203125 24.002 0.453125V1.98828C24.002 2.23633 23.7988 2.44141 23.5488 2.44141H23.2207V14.2207C23.2207 14.4004 23.1465 14.5664 23.0273 14.6855C22.9082 14.8047 22.7422 14.8789 22.5605 14.8789H17.8965V15.7559H16.9355V17.1172C16.6523 16.6445 16.3008 16.2793 15.9141 16.0254C15.4531 15.7227 14.9434 15.5723 14.4297 15.5742C13.9121 15.5762 13.4043 15.7344 12.9453 16.043C12.4512 16.377 12.0195 16.8945 11.7227 17.5879H10.0352C10.0039 17.5762 9.9707 17.5645 9.9375 17.5527C9.65234 17.4531 9.35547 17.4043 9.07031 17.4043C8.78516 17.4043 8.49023 17.4531 8.20312 17.5527C8.16992 17.5645 8.13867 17.5762 8.10547 17.5879H7.49023V15.7559H6.5293V14.8789H1.87109C1.68945 14.8789 1.52344 14.8047 1.4043 14.6855C1.39258 14.6738 1.38281 14.6621 1.37305 14.6504C1.27148 14.5352 1.21094 14.3828 1.21094 14.2207V2.44141H0.882812C0.634766 2.44141 0.429688 2.23828 0.429688 1.98828V0.453125C0.429688 0.203125 0.632812 0 0.882812 0ZM12.9199 21.1172C10.9551 21.1172 12.248 21.2715 12.5156 19.1348C12.916 15.9395 15.9531 15.9395 16.4023 19.1348C16.6895 21.1895 17.9219 21.1172 15.998 21.1172H15.2305C15.2266 21.6406 15.1465 21.9082 15.6895 22.2012C15.9668 22.3516 16.4824 22.4629 16.9219 22.6367C17.5938 22.0625 18.7871 22.4414 18.9102 21.3887C18.9297 21.2285 18.5508 20.6172 18.4648 20.3242C18.2793 20.0273 18.2129 19.5586 18.416 19.2461C18.4961 19.1211 18.4629 18.668 18.4629 18.498C18.4629 16.7969 21.4453 16.7949 21.4453 18.498C21.4453 18.7129 21.3965 19.1094 21.5117 19.2773C21.707 19.5605 21.6055 20.0625 21.4414 20.3242C21.3359 20.6328 20.9336 21.2148 20.9688 21.3887C21.2578 22.8613 23.2656 21.2852 23.2656 23.9355C15.5117 23.9355 7.75586 23.9355 0.00195312 23.9355C0.00195312 21.2422 2.54492 22.7324 2.74023 21.082C2.76172 20.9023 2.33789 20.2168 2.24023 19.8887C2.0332 19.5566 1.95703 19.0293 2.18555 18.6797C2.27539 18.541 2.23828 18.0332 2.23828 17.8398C2.23828 15.9316 5.58008 15.9316 5.58008 17.8398C5.58008 18.082 5.52539 18.5254 5.65625 18.7148C5.875 19.0313 5.76172 19.5938 5.57812 19.8887C5.45898 20.2344 5.00977 20.8867 5.04688 21.082C5.1875 21.7949 6.96484 22.2793 7.58398 22.541C7.93359 22.3613 8.21484 22.1484 8.24414 21.9023C8.25977 21.7734 7.95703 21.2871 7.88867 21.0527C7.74023 20.8164 7.6875 20.4414 7.84961 20.1914C7.91406 20.0918 7.88672 19.7305 7.88672 19.5938C7.88672 18.2363 10.2676 18.2344 10.2676 19.5938C10.2676 19.7656 10.2285 20.082 10.3203 20.2168C10.4766 20.4434 10.3965 20.8438 10.2637 21.0527C10.1797 21.2988 9.85938 21.7637 9.88672 21.9023C10.0625 22.793 11.0254 22.2871 11.4805 22.9102C11.9102 22.5723 12.7656 22.4785 13.2871 22.166C13.7637 21.8809 13.6836 21.5938 13.6797 21.1191L12.9199 21.1172ZM5.98633 11.6836H10.0117V10.5391H9.81836C9.7168 10.5391 9.63281 10.4551 9.63281 10.3535V9.89063C9.63281 9.53516 9.92383 9.24219 10.2812 9.24219H10.4609C10.8164 9.24219 11.1094 9.5332 11.1094 9.89063V10.3516C11.1094 10.4531 11.0254 10.5371 10.9238 10.5371H10.7305V11.6816H13.6602V10.5371H13.4668C13.3652 10.5371 13.2812 10.4531 13.2812 10.3516V9.88867C13.2812 9.5332 13.5723 9.24024 13.9297 9.24024H14.1094C14.4648 9.24024 14.7578 9.53125 14.7578 9.88867V10.3496C14.7578 10.4512 14.6738 10.5352 14.5723 10.5352H14.3789V11.6797H18.4453C18.6133 11.6797 18.75 11.8164 18.75 11.9844V13.8457C18.75 13.9375 18.709 14.0215 18.6426 14.0781H22.4219V2.49219H2.00977V14.082H5.78906C5.72266 14.0254 5.68164 13.9434 5.68164 13.8496V11.9883C5.68164 11.8203 5.81836 11.6836 5.98633 11.6836Z" fill="#333333"/>
</g>
<defs>
<clipPath id="clip0_646_10656">
<rect width="24" height="23.9355" fill="white"/>
</clipPath>
</defs>
</svg>
