<svg width="24" height="24" viewBox="0 0 24 24" fill="none" xmlns="http://www.w3.org/2000/svg">
<g clip-path="url(#clip0_646_10649)">
<path fill-rule="evenodd" clip-rule="evenodd" d="M0.533203 17.8789H2.58594C2.39062 17.8281 2.24414 17.6484 2.24414 17.4375V6.45508C2.24414 6.20508 2.44922 6 2.69922 6H21.1836C21.4336 6 21.6387 6.20508 21.6387 6.45508V17.4355C21.6387 17.6465 21.4941 17.8262 21.2969 17.877H23.4688C23.7617 17.877 24.002 18.1152 24.002 18.4102C24.002 18.7031 23.7637 18.9434 23.4688 18.9434H0.533203C0.240234 18.9434 0 18.7051 0 18.4102C0 18.1172 0.238281 17.8789 0.533203 17.8789ZM5.8418 8.14258H10.6035V13.8535C10.5938 14.0137 10.3887 14.0176 10.166 14.0078H5.76562C5.45703 14.0078 5.20508 14.2598 5.20508 14.5684C5.20508 14.877 5.45703 15.1289 5.76562 15.1289H10.3691V14.5332H10.8066V15.291C10.8066 15.4297 10.6934 15.541 10.5566 15.541H5.78711C5.23242 15.7461 4.7793 15.293 4.7793 14.7383V9.20508C4.78125 8.62109 5.25781 8.14258 5.8418 8.14258ZM13.0332 15.2363C12.875 15.2363 12.7461 15.0977 12.7461 14.9277C12.7461 14.7578 12.875 14.6191 13.0332 14.6191H18.7539C18.9121 14.6191 19.041 14.7578 19.041 14.9277C19.041 15.0977 18.9121 15.2363 18.7539 15.2363H13.0332ZM12.9922 8.49609H19.2949C19.4297 8.49609 19.541 8.60742 19.541 8.74219V9.62109C19.541 9.75391 19.4297 9.86719 19.2949 9.86719H12.9922C12.8594 9.86719 12.7461 9.75781 12.7461 9.62109V8.74219C12.7461 8.60547 12.8574 8.49609 12.9922 8.49609ZM13.0332 11.7871C12.875 11.7871 12.7461 11.6484 12.7461 11.4785C12.7461 11.3086 12.875 11.1699 13.0332 11.1699H18.3613C18.5195 11.1699 18.6484 11.3086 18.6484 11.4785C18.6484 11.6484 18.5195 11.7871 18.3613 11.7871H13.0332ZM13.0332 13.5117C12.875 13.5117 12.7461 13.373 12.7461 13.2031C12.7461 13.0332 12.875 12.8945 13.0332 12.8945H17.5312C17.6895 12.8945 17.8184 13.0332 17.8184 13.2031C17.8184 13.373 17.6895 13.5117 17.5312 13.5117H13.0332ZM6.03906 8.97266H6.2168C6.30664 8.97266 6.38086 9.0332 6.38086 9.10547V13.2793C6.38086 13.3516 6.30664 13.4121 6.2168 13.4121H6.03906C5.94922 13.4121 5.875 13.3516 5.875 13.2793V9.10547C5.875 9.03125 5.94922 8.97266 6.03906 8.97266ZM3.02148 6.71289H20.9219V17.3066H3.02148V6.71289ZM11.5527 18.0781H13.0508C13.1914 18.0781 13.3066 18.1934 13.3066 18.334C13.3066 18.4746 13.1914 18.5898 13.0508 18.5898H11.5527C11.4121 18.5898 11.2969 18.4746 11.2969 18.334C11.2969 18.1914 11.4121 18.0781 11.5527 18.0781Z" fill="#333333"/>
</g>
<defs>
<clipPath id="clip0_646_10649">
<rect width="24" height="24" fill="white"/>
</clipPath>
</defs>
</svg>
