<svg xmlns="http://www.w3.org/2000/svg" width="14" height="13" viewBox="0 0 14 13" fill="none">
    <path d="M13.7215 6.59733C13.1722 5.44014 12.5186 4.49639 11.7605 3.76607L10.9655 4.56107C11.6138 5.18061 12.1785 5.99108 12.6668 7.00045C11.3668 9.69108 9.52148 10.9692 6.9996 10.9692C6.24262 10.9692 5.54538 10.8526 4.90788 10.6195L4.04648 11.4809C4.93189 11.8898 5.91627 12.0942 6.9996 12.0942C10.0027 12.0942 12.2434 10.5301 13.7215 7.40201C13.7809 7.27621 13.8117 7.1388 13.8117 6.99967C13.8117 6.86054 13.7809 6.72313 13.7215 6.59733ZM12.7282 1.58732L12.0621 0.92045C12.0505 0.908828 12.0367 0.899608 12.0215 0.893317C12.0064 0.887027 11.9901 0.883789 11.9737 0.883789C11.9572 0.883789 11.941 0.887027 11.9258 0.893317C11.9106 0.899608 11.8968 0.908828 11.8852 0.92045L10.1763 2.62857C9.23413 2.14732 8.17523 1.9067 6.9996 1.9067C3.99648 1.9067 1.75585 3.47076 0.277727 6.59889C0.218314 6.7247 0.1875 6.8621 0.1875 7.00123C0.1875 7.14036 0.218314 7.27777 0.277727 7.40357C0.868248 8.64733 1.57919 9.64425 2.41054 10.3944L0.757102 12.0473C0.733678 12.0708 0.720519 12.1025 0.720519 12.1357C0.720519 12.1688 0.733678 12.2006 0.757102 12.224L1.42413 12.8911C1.44757 12.9145 1.47935 12.9277 1.51249 12.9277C1.54563 12.9277 1.57741 12.9145 1.60085 12.8911L12.7282 1.7642C12.7398 1.75259 12.749 1.7388 12.7553 1.72363C12.7616 1.70846 12.7649 1.69219 12.7649 1.67576C12.7649 1.65934 12.7616 1.64307 12.7553 1.62789C12.749 1.61272 12.7398 1.59893 12.7282 1.58732ZM1.33241 7.00045C2.63398 4.30983 4.47929 3.0317 6.9996 3.0317C7.85179 3.0317 8.62663 3.17795 9.3296 3.47529L8.23116 4.57373C7.71096 4.29617 7.11532 4.19316 6.53211 4.2799C5.9489 4.36663 5.40901 4.63851 4.99209 5.05544C4.57516 5.47236 4.30328 6.01225 4.21655 6.59546C4.12982 7.17866 4.23283 7.77431 4.51038 8.29451L3.20695 9.59795C2.48554 8.96123 1.86366 8.09858 1.33241 7.00045ZM5.1871 7.00045C5.18738 6.72493 5.25264 6.45335 5.37759 6.20779C5.50254 5.96223 5.68365 5.7496 5.90621 5.58718C6.12878 5.42477 6.38651 5.31714 6.65849 5.27305C6.93046 5.22895 7.209 5.24964 7.47148 5.33342L5.27007 7.53483C5.21489 7.36208 5.1869 7.1818 5.1871 7.00045Z" fill="#545B5B"/>
</svg>
