<svg xmlns="http://www.w3.org/2000/svg" width="14" height="12" viewBox="0 0 14 12" fill="none">
    <path d="M13.7215 5.59688C12.2402 2.47656 10.0012 0.90625 6.9996 0.90625C3.99648 0.90625 1.75898 2.47656 0.277727 5.59844C0.218314 5.72425 0.1875 5.86165 0.1875 6.00078C0.1875 6.13991 0.218314 6.27732 0.277727 6.40312C1.75898 9.52344 3.99804 11.0938 6.9996 11.0938C10.0027 11.0938 12.2402 9.52344 13.7215 6.40156C13.8418 6.14844 13.8418 5.85469 13.7215 5.59688ZM6.9996 9.96875C4.47929 9.96875 2.63398 8.69063 1.33241 6C2.63398 3.30938 4.47929 2.03125 6.9996 2.03125C9.51992 2.03125 11.3652 3.30938 12.6668 6C11.3668 8.69063 9.52148 9.96875 6.9996 9.96875ZM6.9371 3.25C5.41835 3.25 4.1871 4.48125 4.1871 6C4.1871 7.51875 5.41835 8.75 6.9371 8.75C8.45585 8.75 9.6871 7.51875 9.6871 6C9.6871 4.48125 8.45585 3.25 6.9371 3.25ZM6.9371 7.75C5.96991 7.75 5.1871 6.96719 5.1871 6C5.1871 5.03281 5.96991 4.25 6.9371 4.25C7.90429 4.25 8.6871 5.03281 8.6871 6C8.6871 6.96719 7.90429 7.75 6.9371 7.75Z" fill="#545B5B"/>
</svg>
