<svg width="24" height="24" viewBox="0 0 24 24" fill="none" xmlns="http://www.w3.org/2000/svg">
<path d="M7.00067 6H17.0007L11.9907 12.3L7.00067 6ZM4.25067 5.61C6.27067 8.2 10.0007 13 10.0007 13V19C10.0007 19.55 10.4507 20 11.0007 20H13.0007C13.5507 20 14.0007 19.55 14.0007 19V13C14.0007 13 17.7207 8.2 19.7407 5.61C19.8553 5.46237 19.9261 5.28553 19.9452 5.09961C19.9642 4.91368 19.9306 4.72615 19.8483 4.55837C19.766 4.39059 19.6382 4.24929 19.4795 4.15058C19.3208 4.05186 19.1376 3.99969 18.9507 4H5.04067C4.21067 4 3.74067 4.95 4.25067 5.61Z" fill="#1F82FF"/>
</svg>
