<svg xmlns="http://www.w3.org/2000/svg" width="156" height="56" viewBox="0 0 156 56" fill="none">
    <path d="M22.3231 0.290907C22.2184 0.396144 22.1071 0.567153 22.0874 0.685546C22.0547 0.863131 22.0809 0.928905 22.2511 1.10649C22.4279 1.28408 22.4934 1.31039 22.6898 1.2775C22.8208 1.25777 22.9714 1.19857 23.0237 1.15253C23.3118 0.915749 23.2464 0.38299 22.9124 0.211979C22.644 0.0738563 22.5523 0.0870108 22.3231 0.290907Z" fill="#EAB65B"/>
    <path d="M33.2907 0.718408C33.1467 0.889417 33.1206 0.974922 33.1531 1.15251C33.1727 1.27748 33.2383 1.43533 33.2971 1.50111C33.461 1.68527 33.8604 1.66554 34.0829 1.46822C34.4758 1.13278 34.214 0.507935 33.6836 0.507935C33.5199 0.507935 33.4216 0.560553 33.2907 0.718408Z" fill="#EAB65B"/>
    <path d="M28.3072 3.40202C27.9012 3.56644 27.7505 4.19787 28.0321 4.55305C28.2089 4.78325 28.5558 4.92796 28.7918 4.87533C29.4268 4.72406 29.6428 3.79008 29.1126 3.46781C28.8963 3.32968 28.5429 3.30336 28.3072 3.40202Z" fill="#1F82FF"/>
    <path d="M12.2985 4.21088C11.8336 4.56606 12.0497 5.24352 12.6259 5.24352C12.8355 5.24352 12.914 5.20405 13.0515 5.03961C13.1432 4.9278 13.2218 4.76994 13.2218 4.68445C13.2218 4.59894 13.1432 4.44108 13.0515 4.32927C12.9206 4.17142 12.8289 4.12537 12.6456 4.12537C12.5081 4.12537 12.3575 4.16483 12.2985 4.21088Z" fill="#EAB65B"/>
    <path d="M19.0158 4.6977C18.2563 4.89503 18.2104 5.98686 18.9568 6.23023C19.2515 6.32889 19.7033 6.17759 19.8735 5.9211C20.0831 5.5988 19.9587 5.00027 19.6444 4.80295C19.5003 4.71087 19.1795 4.65824 19.0158 4.6977Z" fill="#1F82FF"/>
    <path d="M42.8636 5.19097C42.5885 5.40802 42.5952 6.01314 42.8832 6.16441C43.0404 6.24992 43.3809 6.24992 43.5379 6.16441C43.8262 6.00655 43.8326 5.33568 43.5379 5.17782C43.3678 5.08575 42.9945 5.0989 42.8636 5.19097Z" fill="#EAB65B"/>
    <path d="M36.9508 5.98683C36.5252 6.37489 36.5972 7.01288 37.0949 7.24967C37.3633 7.37464 37.5401 7.37464 37.815 7.2431C38.0902 7.11154 38.2342 6.85502 38.2342 6.4867C38.2342 6.26967 38.1948 6.17757 38.0115 5.99341C37.8215 5.80265 37.743 5.76978 37.4877 5.76978C37.2389 5.76978 37.1473 5.80924 36.9508 5.98683Z" fill="#1F82FF"/>
    <path d="M23.5275 8.06527C22.8727 8.36123 22.6501 9.19656 23.0888 9.71616C23.3179 9.99897 23.5864 10.1174 23.9662 10.124C24.5751 10.124 25.0204 9.6767 25.0204 9.05844C25.0204 8.58486 24.7519 8.17049 24.3327 8.01263C24.0643 7.90741 23.8352 7.92714 23.5275 8.06527Z" fill="#EAB65B"/>
    <path d="M31.0313 8.34154C30.3304 8.62437 30.134 9.57808 30.6645 10.1437C31.5615 11.0974 33.0609 9.84774 32.3276 8.75591C32.0591 8.35471 31.4634 8.17053 31.0313 8.34154Z" fill="#EAB65B"/>
    <path d="M11.0212 9.5978C10.6807 9.68329 10.5039 9.93981 10.5039 10.3476C10.5039 10.6567 10.5301 10.7225 10.72 10.9132C10.9033 11.0974 10.9753 11.1303 11.2569 11.1303C11.5384 11.1303 11.6105 11.0974 11.7938 10.9132C11.9837 10.7225 12.0099 10.6567 12.0099 10.341C12.0099 10.0451 11.9837 9.95298 11.8396 9.81485C11.6367 9.61095 11.3027 9.51887 11.0212 9.5978Z" fill="#1F82FF"/>
    <path d="M16.3318 10.8146C15.8669 10.9264 15.4675 11.5578 15.5461 12.0577C15.6901 13.0246 17.0259 13.2942 17.53 12.4589C18.0604 11.5907 17.314 10.5778 16.3318 10.8146Z" fill="#EAB65B"/>
    <path d="M44.6702 10.9329C44.2969 11.0908 44.1464 11.617 44.3558 12.0182C44.4934 12.2813 44.703 12.4128 44.9975 12.4128C45.6588 12.4128 46.0321 11.7945 45.6981 11.2486C45.4691 10.8737 45.0827 10.7488 44.6702 10.9329Z" fill="#1F82FF"/>
    <path d="M38.0047 11.0579C37.7626 11.1631 37.4613 11.5051 37.4089 11.7288C37.3369 12.005 37.4218 12.5181 37.5661 12.7219C37.9982 13.327 39.0589 13.2481 39.3733 12.5838C39.609 12.0774 39.4582 11.4788 39.0065 11.1434C38.784 10.9789 38.2667 10.9329 38.0047 11.0579Z" fill="#EAB65B"/>
    <path d="M26.572 11.7749C25.7602 12.084 25.3214 12.6891 25.3214 13.5047C25.3149 14.1953 25.6685 14.7741 26.2775 15.0964C26.5524 15.2411 26.6964 15.2674 27.1025 15.2674C27.5085 15.2674 27.6525 15.2411 27.9274 15.0964C28.5431 14.7676 28.8704 14.2282 28.8639 13.531C28.8572 13.0377 28.7852 12.7944 28.5036 12.3997C28.1107 11.8472 27.1876 11.5447 26.572 11.7749Z" fill="#1F82FF"/>
    <path d="M4.89279 11.9261C4.3428 12.2221 4.56541 13.0048 5.194 13.0048C5.56067 13.0048 5.82257 12.5247 5.64578 12.1695C5.56067 11.9788 5.31839 11.8209 5.14816 11.8209C5.10232 11.8275 4.99101 11.8669 4.89279 11.9261Z" fill="#EAB65B"/>
    <path d="M50.4129 12.5444C50.223 12.7351 50.2294 13.2152 50.4259 13.3994C50.6551 13.6099 51.0152 13.577 51.2312 13.3205C51.4344 13.0771 51.4212 12.814 51.1855 12.5641C51.0023 12.3668 50.6027 12.3536 50.4129 12.5444Z" fill="#EAB65B"/>
    <path d="M20.7444 12.6956C19.9193 13.0048 19.5068 13.5901 19.5068 14.4452C19.5068 14.8135 19.5396 14.9648 19.6902 15.2476C20.1354 16.1027 21.2158 16.4513 22.1063 16.0237C22.6563 15.7541 23.1081 15.0371 23.1081 14.4189C23.1081 13.8072 22.6563 13.0771 22.0997 12.7943C21.7658 12.6233 21.0783 12.5706 20.7444 12.6956Z" fill="#1F82FF"/>
    <path d="M32.2759 12.722C31.8567 12.8732 31.3461 13.4126 31.1954 13.8533C31.0513 14.2873 31.0906 14.8398 31.2806 15.2213C31.6079 15.8593 32.4003 16.2869 33.0813 16.2013C34.0175 16.0764 34.6527 15.3594 34.6592 14.4189C34.6724 13.1298 33.5002 12.2944 32.2759 12.722Z" fill="#1F82FF"/>
    <path d="M15.5136 16.0632C14.3481 16.4381 13.9422 18.0035 14.7606 18.9769C15.0095 19.2729 15.5267 19.5229 15.972 19.5623C17.5565 19.707 18.4928 17.8128 17.4452 16.5697C17.0392 16.0829 16.1618 15.8527 15.5136 16.0632Z" fill="#1F82FF"/>
    <path d="M37.4938 16.0567C37.0945 16.2014 36.7605 16.4579 36.5444 16.7868C36.0664 17.5103 36.1583 18.3522 36.7868 19.0099C37.173 19.4243 37.4678 19.5493 38.0702 19.5493C38.5284 19.5493 38.6397 19.523 38.9476 19.3519C39.3601 19.1217 39.635 18.7731 39.7726 18.3127C39.9755 17.6155 39.8315 17.0367 39.3209 16.5171C38.8165 16.0107 38.1159 15.8397 37.4938 16.0567Z" fill="#1F82FF"/>
    <path d="M10.8645 16.2408C10.321 16.3986 10.046 16.7999 10.0918 17.3787C10.1246 17.7733 10.2686 18.0035 10.6091 18.1942C11.2966 18.5889 12.1544 18.1482 12.2199 17.3655C12.2853 16.6025 11.6044 16.0303 10.8645 16.2408Z" fill="#EAB65B"/>
    <path d="M43.6361 16.6158C42.5295 17.1288 42.8243 18.681 44.0225 18.681C44.6642 18.681 45.1224 18.2338 45.1224 17.6155C45.1224 17.1156 44.9063 16.7868 44.435 16.5895C44.1273 16.4645 43.9569 16.4645 43.6361 16.6158Z" fill="#EAB65B"/>
    <path d="M5.56089 17.4708C5.22039 17.8063 5.22039 18.2996 5.55433 18.6219C5.9472 18.9968 6.56924 18.8652 6.77876 18.3522C6.9228 18.0168 6.85078 17.7274 6.56924 17.484C6.25494 17.2012 5.82934 17.1946 5.56089 17.4708Z" fill="#1F82FF"/>
    <path d="M49.8497 18.9836C49.6076 19.0888 49.3652 19.444 49.3652 19.6873C49.3652 20.1609 49.6732 20.5029 50.1053 20.5029C50.8319 20.5029 51.192 19.6742 50.6879 19.1677C50.485 18.9638 50.0921 18.8783 49.8497 18.9836Z" fill="#1F82FF"/>
    <path d="M12.2001 21.1014C11.8204 21.2132 11.3751 21.5683 11.1721 21.9301C10.4977 23.1535 11.3424 24.5873 12.7305 24.5873C13.4638 24.5873 14.0008 24.2518 14.3412 23.581C15.0222 22.2458 13.6603 20.6738 12.2001 21.1014Z" fill="#1F82FF"/>
    <path d="M40.6304 21.1344C40.172 21.2791 39.6547 21.8118 39.5173 22.2788C39.3405 22.8839 39.4125 23.3312 39.7726 23.8574C40.3947 24.7585 41.7959 24.8441 42.5424 24.0284C43.2561 23.2522 43.1185 21.9565 42.2672 21.3777C41.7435 21.016 41.2458 20.9436 40.6304 21.1344Z" fill="#1F82FF"/>
    <path d="M0.191384 21.7394C-0.240767 22.1735 0.112811 22.8379 0.715205 22.7063C0.983661 22.6471 1.19319 22.3248 1.14081 22.0486C1.09497 21.7855 0.918184 21.6276 0.630084 21.575C0.427102 21.5421 0.368174 21.5684 0.191384 21.7394Z" fill="#EAB65B"/>
    <path d="M54.6364 22.8378C54.3416 23.1272 54.4464 23.6008 54.8328 23.7652C55.1077 23.877 55.3108 23.8112 55.5137 23.5482C55.9327 23.022 55.1077 22.3577 54.6364 22.8378Z" fill="#EAB65B"/>
    <path d="M8.1204 23.3443C7.59658 23.4824 7.32812 23.8442 7.32812 24.3968C7.32812 25.2452 8.15969 25.7516 8.89303 25.3569C10.0127 24.7517 9.34483 23.0286 8.1204 23.3443Z" fill="#EAB65B"/>
    <path d="M46.143 23.7259C45.6454 23.9955 45.4425 24.6598 45.7109 25.1662C45.9334 25.607 46.1497 25.7319 46.6472 25.7319C47.112 25.7319 47.3216 25.6202 47.5836 25.232C47.7145 25.0479 47.7341 24.9426 47.7145 24.6268C47.6556 23.7982 46.8699 23.3444 46.143 23.7259Z" fill="#EAB65B"/>
    <path d="M3.3998 26.3106C3.13134 26.4027 2.87598 26.7579 2.87598 27.0408C2.87598 27.3366 3.09861 27.6657 3.38015 27.7839C4.01528 28.0471 4.66352 27.3434 4.36233 26.712C4.18554 26.3436 3.79922 26.1792 3.3998 26.3106Z" fill="#1F82FF"/>
    <path d="M11.3941 26.9552C10.2155 27.1919 9.6066 28.5205 10.1828 29.586C10.8965 30.8949 12.9001 30.7831 13.4174 29.4019C13.9216 28.047 12.7888 26.6723 11.3941 26.9552Z" fill="#1F82FF"/>
    <path d="M42.0775 26.9749C41.4815 27.1984 41.0102 27.6918 40.853 28.2641C40.5453 29.3689 41.4423 30.5002 42.6276 30.5002C44.1532 30.5002 44.9521 28.6917 43.9371 27.5274C43.4722 27.0011 42.6537 26.7578 42.0775 26.9749Z" fill="#1F82FF"/>
    <path d="M50.8778 28.2312C50.3278 28.7047 50.5766 29.5334 51.3035 29.619C51.8337 29.6848 52.2725 29.1652 52.122 28.6521C51.9581 28.0997 51.3035 27.876 50.8778 28.2312Z" fill="#1F82FF"/>
    <path d="M7.6232 31.0463C6.82437 31.4145 6.83092 32.6117 7.62975 32.9998C8.12082 33.2431 8.61191 33.1313 8.93929 32.6972C9.103 32.4867 9.12917 32.3946 9.12917 32.0394C9.12917 31.5989 9.03096 31.3948 8.68393 31.1319C8.46785 30.9672 7.89165 30.9213 7.6232 31.0463Z" fill="#EAB65B"/>
    <path d="M46.3401 31.487C45.9865 31.6778 45.8096 31.9737 45.7771 32.4012C45.7572 32.7038 45.7771 32.8091 45.908 32.9932C46.1501 33.3484 46.3729 33.4799 46.7918 33.5128C47.1062 33.5325 47.211 33.5128 47.3943 33.3813C47.7807 33.1182 47.892 32.9076 47.892 32.4406C47.892 31.9936 47.7936 31.7896 47.4467 31.5266C47.1979 31.3423 46.6478 31.3161 46.3401 31.487Z" fill="#EAB65B"/>
    <path d="M0.329152 32.7762C-0.116095 33.1511 0.217841 33.8813 0.780947 33.7563C1.2131 33.6575 1.38989 33.0788 1.0756 32.7697C0.866067 32.5526 0.584514 32.5591 0.329152 32.7762Z" fill="#EAB65B"/>
    <path d="M12.1543 32.9602C11.1918 33.3089 10.7138 34.302 11.0412 35.2754C11.2048 35.7556 11.7221 36.2488 12.2067 36.387C13.287 36.7028 14.3936 35.9465 14.5115 34.8152C14.6424 33.5457 13.3525 32.5329 12.1543 32.9602Z" fill="#1F82FF"/>
    <path d="M40.683 32.934C40.2966 33.0525 39.8578 33.4142 39.6484 33.7892C39.4716 34.1047 39.4453 34.21 39.4453 34.6441C39.4453 35.1704 39.5568 35.473 39.9037 35.8806C40.1133 36.1306 40.6567 36.407 41.056 36.4594C41.7109 36.5517 42.4966 36.1109 42.8371 35.473C43.04 35.0849 43.04 34.2626 42.8371 33.8812C42.6471 33.526 42.3461 33.2301 42.0057 33.0525C41.7044 32.8946 41.0103 32.8355 40.683 32.934Z" fill="#1F82FF"/>
    <path d="M54.2633 33.3942C54.2042 33.4339 54.1257 33.5589 54.0798 33.6838C53.8965 34.2494 54.5186 34.6834 54.9703 34.2888C55.35 33.96 55.1079 33.3286 54.6102 33.3286C54.4793 33.3286 54.3221 33.3615 54.2633 33.3942Z" fill="#EAB65B"/>
    <path d="M5.18772 35.6439C5.07642 35.6701 4.90616 35.7951 4.80794 35.9071C4.65735 36.0912 4.63117 36.1635 4.65735 36.4332C4.72936 37.1699 5.52166 37.4395 6.02584 36.9067C6.15023 36.7752 6.18299 36.6699 6.18299 36.4135C6.18299 36.1438 6.15023 36.0648 5.98655 35.8939C5.74427 35.6571 5.46926 35.5648 5.18772 35.6439Z" fill="#1F82FF"/>
    <path d="M48.9856 37.4394C48.5796 37.7814 48.5535 38.2813 48.9136 38.6298C49.084 38.7942 49.1624 38.8207 49.4637 38.8207C49.7582 38.8207 49.8498 38.7942 49.9874 38.6496C50.3475 38.2943 50.3018 37.6959 49.8958 37.4262C49.5945 37.2224 49.2344 37.2289 48.9856 37.4394Z" fill="#1F82FF"/>
    <path d="M15.8733 37.9262C14.2298 38.3602 13.9679 40.5308 15.4674 41.2871C16.3382 41.7212 17.3728 41.4121 17.8246 40.5769C18.2043 39.8729 18.1127 39.0707 17.5758 38.472C17.4121 38.2944 17.1632 38.097 17.0192 38.0379C16.6984 37.9129 16.1418 37.8538 15.8733 37.9262Z" fill="#1F82FF"/>
    <path d="M37.435 37.9591C36.5313 38.2091 35.942 39.1298 36.1384 39.9979C36.3348 40.886 36.9241 41.4056 37.7886 41.4712C39.0718 41.5635 39.9623 40.3993 39.6087 39.1036C39.373 38.2682 38.3123 37.7091 37.435 37.9591Z" fill="#1F82FF"/>
    <path d="M10.8377 38.1959C10.5954 38.2747 10.2811 38.5643 10.1698 38.834C9.88174 39.518 10.4186 40.2941 11.1782 40.3006C12.1604 40.3006 12.6449 39.2416 11.9967 38.5247C11.6889 38.1762 11.2895 38.0644 10.8377 38.1959Z" fill="#EAB65B"/>
    <path d="M43.0854 38.505C42.7645 38.6629 42.5485 39.0311 42.542 39.4325C42.542 39.8927 42.758 40.2612 43.1574 40.4717C43.4323 40.6164 43.9367 40.59 44.1984 40.4123C44.454 40.2415 44.7157 39.7745 44.7157 39.4784C44.7157 39.1825 44.454 38.7155 44.1984 38.5444C43.93 38.3603 43.4127 38.3406 43.0854 38.505Z" fill="#EAB65B"/>
    <path d="M20.81 41.2939C19.304 41.5174 18.7802 43.4118 19.9326 44.4311C20.4826 44.9178 21.1897 45.023 21.7987 44.7075C22.9511 44.1155 23.2326 42.6684 22.3618 41.7936C21.9427 41.3662 21.4254 41.2016 20.81 41.2939Z" fill="#1F82FF"/>
    <path d="M32.8317 41.2939C32.2424 41.3663 31.7251 41.741 31.4567 42.2738C31.3911 42.3988 31.3258 42.7014 31.3059 42.9446C31.2798 43.3525 31.293 43.4315 31.4894 43.8262C31.8167 44.4905 32.3472 44.8258 33.0935 44.8325C33.7811 44.839 34.4489 44.3982 34.737 43.7406C34.881 43.4183 34.8877 42.6487 34.7501 42.3329C34.4357 41.603 33.6631 41.1819 32.8317 41.2939Z" fill="#1F82FF"/>
    <path d="M4.14664 42.5369C4.06807 42.5696 3.95676 42.6619 3.89783 42.7472C3.56389 43.2209 4.11391 43.8326 4.63118 43.5629C5.02405 43.3589 5.02405 42.7669 4.63773 42.5696C4.43474 42.4578 4.34964 42.4513 4.14664 42.5369Z" fill="#EAB65B"/>
    <path d="M26.5132 42.7672C25.3477 43.1289 24.9285 44.7272 25.7471 45.6744C26.6244 46.6739 28.1959 46.424 28.746 45.2074C28.9357 44.7863 28.9161 44.0958 28.7001 43.6682C28.2943 42.8525 27.4102 42.4908 26.5132 42.7672Z" fill="#1F82FF"/>
    <path d="M9.60699 43.5562C9.10282 43.839 9.11593 44.6745 9.6201 44.9374C10.432 45.3585 11.1916 44.3455 10.5499 43.7009C10.3142 43.4641 9.882 43.3985 9.60699 43.5562Z" fill="#1F82FF"/>
    <path d="M50.1575 43.6288C49.9086 43.9443 50.0003 44.3587 50.3472 44.5428C50.8841 44.8192 51.3818 44.1219 50.9954 43.6288C50.8908 43.4906 50.8056 43.4576 50.5764 43.4576C50.3472 43.4576 50.262 43.4906 50.1575 43.6288Z" fill="#EAB65B"/>
    <path d="M15.7683 43.7735C15.2837 44.0891 15.12 44.6613 15.3819 45.1677C15.5849 45.5624 15.8599 45.7268 16.3444 45.7268C16.9861 45.7268 17.3528 45.3783 17.3986 44.7272C17.4183 44.4114 17.3986 44.3061 17.2677 44.122C17.032 43.7735 16.8028 43.6353 16.4165 43.6089C16.1153 43.5827 16.0302 43.6089 15.7683 43.7735Z" fill="#EAB65B"/>
    <path d="M37.612 43.9379C36.8851 44.3455 36.9047 45.398 37.6448 45.8191C38.1293 46.0887 38.6923 45.9505 39.0459 45.4703C39.2423 45.2139 39.2423 44.5299 39.0459 44.2667C38.6858 43.78 38.1226 43.6485 37.612 43.9379Z" fill="#EAB65B"/>
    <path d="M43.3675 44.8124C42.8959 45.0427 42.811 45.7464 43.2103 46.1017C43.3675 46.2463 43.4723 46.286 43.7212 46.286C44.0746 46.286 44.2777 46.1675 44.4217 45.8913C44.6311 45.4835 44.4478 44.9771 44.0289 44.7995C43.7472 44.681 43.6228 44.6877 43.3675 44.8124Z" fill="#1F82FF"/>
    <path d="M30.8675 46.799C30.2389 47.1016 30.0229 47.6868 30.3174 48.2985C30.671 49.0419 31.7252 49.0878 32.1966 48.384C32.4062 48.0882 32.3798 47.4765 32.1509 47.1542C31.8628 46.7463 31.306 46.5952 30.8675 46.799Z" fill="#EAB65B"/>
    <path d="M22.9059 47.0948C22.572 47.3185 22.3887 47.6343 22.3887 47.9764C22.3887 48.6077 22.8143 49.055 23.4232 49.0615C24.5561 49.068 24.9686 47.7264 24.0321 47.0948C23.8685 46.983 23.7179 46.9436 23.469 46.9436C23.2202 46.9436 23.0696 46.983 22.9059 47.0948Z" fill="#EAB65B"/>
    <path d="M17.1373 49.4823C16.6331 49.752 16.6462 50.5939 17.1504 50.8571C17.6938 51.14 18.329 50.7912 18.329 50.2125C18.329 49.5614 17.7004 49.1732 17.1373 49.4823Z" fill="#1F82FF"/>
    <path d="M35.2481 49.864C35.0582 50.0546 35.0254 50.1337 35.0254 50.3836C35.0254 51.2385 36.204 51.482 36.5313 50.6927C36.7345 50.1993 36.3284 49.6403 35.7719 49.6403C35.5166 49.6403 35.4379 49.6732 35.2481 49.864Z" fill="#1F82FF"/>
    <path d="M11.3812 50.8836C11.1716 51.0545 11.1651 51.4885 11.3746 51.6926C11.558 51.8832 11.9704 51.8964 12.1669 51.7188C12.3633 51.5411 12.3568 51.0742 12.1603 50.8901C11.977 50.7189 11.5841 50.7124 11.3812 50.8836Z" fill="#EAB65B"/>
    <path d="M42.2086 50.8901C41.8616 51.1663 41.9269 51.6794 42.3265 51.8503C42.6079 51.9688 42.8436 51.9161 43.0139 51.6991C43.2039 51.4556 43.1843 51.1795 42.9551 50.9492C42.7259 50.719 42.4509 50.6993 42.2086 50.8901Z" fill="#EAB65B"/>
    <path d="M26.5327 51.3242C26.2578 51.4624 26.1006 51.7123 26.1006 52.0082C26.1006 52.3173 26.2118 52.5081 26.4671 52.666C26.8863 52.9224 27.4168 52.7448 27.6065 52.2846C27.7441 51.9555 27.6197 51.5806 27.3053 51.3703C27.0435 51.1927 26.8275 51.1795 26.5327 51.3242Z" fill="#1F82FF"/>
    <path d="M21.675 54.8824C21.5965 54.9482 21.5179 55.1126 21.4917 55.2441C21.459 55.4546 21.4852 55.5138 21.6554 55.6914C21.878 55.9084 22.0417 55.9349 22.3167 55.7902C22.8471 55.5205 22.6179 54.7706 22.009 54.7706C21.9042 54.7706 21.7536 54.8233 21.675 54.8824Z" fill="#EAB65B"/>
    <path d="M32.1052 54.9088C31.9415 55.0864 31.9415 55.5073 32.1052 55.6849C32.282 55.8757 32.6289 55.9284 32.832 55.7967C33.1658 55.5796 33.2053 55.1785 32.9301 54.9021C32.7469 54.718 32.2755 54.7247 32.1052 54.9088Z" fill="#EAB65B"/>
    <path d="M77.8328 37.3741H65.9893V35.7398L74.9856 22.1362H66.2764V20.2135H77.5936V21.8478L68.5972 35.4513H77.8328V37.3741ZM85.9025 37.3741H79.7295V36.1243L81.7393 35.6677V21.944L79.7295 21.4633V20.2135H85.9025V21.4633L83.8927 21.944V35.6677L85.9025 36.1243V37.3741ZM102.744 37.3741H100.231L91.0914 23.1217H90.9957C91.0115 23.4101 91.0275 23.7305 91.0435 24.0831C91.0754 24.4354 91.0993 24.82 91.1153 25.2367C91.1311 25.6372 91.1471 26.0539 91.1632 26.4865C91.179 26.9192 91.1871 27.3518 91.1871 27.7844V37.3741H89.2012V20.2135H91.6895L100.805 34.4179H100.901C100.885 34.2256 100.869 33.9612 100.853 33.6247C100.837 33.2721 100.821 32.8876 100.805 32.4711C100.789 32.0385 100.773 31.5977 100.758 31.1492C100.742 30.7005 100.734 30.284 100.734 29.8994V20.2135H102.744V37.3741ZM120.443 37.3741H118.29V29.3707H109.533V37.3741H107.38V20.2135H109.533V27.4719H118.29V20.2135H120.443V37.3741ZM138.106 31.3174C138.106 32.503 137.867 33.5767 137.388 34.538C136.91 35.4833 136.176 36.2363 135.187 36.7973C134.214 37.3419 132.97 37.6144 131.454 37.6144C129.333 37.6144 127.714 37.0376 126.597 35.884C125.497 34.7142 124.946 33.176 124.946 31.2694V20.2135H127.1V31.3415C127.1 32.7355 127.467 33.817 128.2 34.5861C128.95 35.3552 130.075 35.7398 131.574 35.7398C132.611 35.7398 133.448 35.5554 134.086 35.187C134.741 34.8024 135.219 34.2816 135.522 33.6247C135.825 32.9518 135.977 32.1827 135.977 31.3174V20.2135H138.106V31.3174ZM147.496 20.2135C148.915 20.2135 150.104 20.3497 151.061 20.6221C152.034 20.8945 152.76 21.3431 153.238 21.968C153.733 22.5929 153.98 23.4261 153.98 24.4677C153.98 25.1406 153.852 25.7415 153.597 26.2702C153.358 26.7829 152.991 27.2155 152.497 27.5681C152.018 27.9046 151.428 28.1367 150.726 28.2651V28.3852C151.444 28.4972 152.09 28.7056 152.664 29.0101C153.254 29.3144 153.717 29.747 154.052 30.308C154.387 30.8687 154.554 31.5977 154.554 32.4951C154.554 33.5365 154.315 34.4258 153.836 35.1629C153.358 35.884 152.672 36.4368 151.779 36.8213C150.901 37.1897 149.849 37.3741 148.62 37.3741H142.615V20.2135H147.496ZM147.927 27.52C149.394 27.52 150.399 27.2876 150.941 26.823C151.484 26.3423 151.755 25.6372 151.755 24.708C151.755 23.7626 151.42 23.0896 150.75 22.689C150.096 22.2725 149.043 22.0641 147.592 22.0641H144.768V27.52H147.927ZM144.768 29.3226V35.5475H148.214C149.729 35.5475 150.782 35.2509 151.372 34.6582C151.962 34.0653 152.257 33.2883 152.257 32.3269C152.257 31.7178 152.122 31.1891 151.851 30.7406C151.595 30.2919 151.157 29.9475 150.535 29.7071C149.929 29.4507 149.099 29.3226 148.046 29.3226H144.768Z" fill="#1F82FF"/>
</svg>
