<svg width="22" height="24" viewBox="0 0 22 24" fill="none" xmlns="http://www.w3.org/2000/svg">
<path d="M11.4489 20.7216C11.4489 20.4816 11.6409 20.2896 11.8809 20.2896H13.3641C13.9881 20.7072 14.6913 20.9976 15.4401 21.1344C15.4089 21.1416 15.3801 21.1536 15.3489 21.1536H11.8784C11.6409 21.1536 11.4489 20.9592 11.4489 20.7216ZM10.3953 17.2704H11.1632C11.0816 16.9872 11.0217 16.6992 10.9881 16.4064H10.3953C10.1576 16.4064 9.96325 16.6008 9.96325 16.8384C9.96325 17.076 10.1553 17.2704 10.3953 17.2704ZM7.22005 6.36959C6.68965 6.01439 6.32485 5.30879 6.32485 4.67519C6.32485 3.77999 7.04965 3.05519 7.94485 3.05519C8.84005 3.05519 9.56485 3.77999 9.56485 4.67519C9.56485 5.30879 9.20005 6.01439 8.66965 6.36959C9.93925 6.69119 10.8777 7.79279 10.8777 8.60879C10.8777 9.57359 5.01445 9.57359 5.01445 8.60879C5.01205 7.79519 5.95285 6.69359 7.22005 6.36959ZM7.12165 8.51279L7.94245 9.33359L8.76565 8.51279L8.07445 6.83999H8.08165L8.35045 6.53279C8.21845 6.57839 8.08645 6.60719 7.94485 6.60719C7.80325 6.60719 7.66885 6.57839 7.53925 6.53279L7.80805 6.84239H7.81525L7.12165 8.51279ZM17.9577 22.8192L17.9384 22.7808C17.9289 22.7808 17.9193 22.7832 17.9097 22.7832H2.88085C2.10325 22.7832 1.47205 22.152 1.47205 21.3744V2.58719C1.47205 1.81199 2.10325 1.17839 2.88085 1.17839H17.9097C18.6873 1.17839 19.3184 1.80959 19.3184 2.58719V11.1864C19.6544 11.4 19.9736 11.64 20.2593 11.9232V2.58719C20.2593 1.29359 19.2057 0.23999 17.9121 0.23999H2.88085C1.58485 0.23999 0.53125 1.29359 0.53125 2.58719V21.3744C0.53125 22.668 1.58485 23.7216 2.88085 23.7216H17.9097C18.0921 23.7216 18.2696 23.6952 18.4424 23.6544L17.9577 22.8192ZM5.44165 15.3024H10.9761C11.0024 15.0144 11.0505 14.7264 11.1225 14.4384H5.44405C5.20645 14.4384 5.01205 14.6304 5.01205 14.8704C5.01205 15.1104 5.20405 15.3024 5.44165 15.3024ZM5.44165 11.3712H13.1961C13.3497 11.2608 13.508 11.1552 13.6761 11.0592C14.0985 10.8144 14.552 10.632 15.0224 10.5096H5.44165C5.20405 10.5096 5.00965 10.704 5.00965 10.9416C5.01205 11.1768 5.20405 11.3712 5.44165 11.3712ZM5.44165 13.3368H11.5304C11.6817 13.032 11.8617 12.744 12.0657 12.4728H5.44165C5.20405 12.4728 5.00965 12.6672 5.00965 12.9048C5.01205 13.1424 5.20405 13.3368 5.44165 13.3368ZM20.1849 13.5984C21.3873 15.6816 20.6721 18.3576 18.5865 19.56C16.5033 20.7624 13.8273 20.0496 12.6249 17.9616C11.4201 15.8784 12.1377 13.2024 14.2209 12C16.3065 10.7976 18.9801 11.5128 20.1849 13.5984ZM19.5585 13.9608C18.5529 12.2208 16.3209 11.6232 14.5833 12.6264C12.8433 13.632 12.2432 15.8616 13.2513 17.604C14.2544 19.344 16.4865 19.9416 18.2264 18.9384C19.9641 17.9304 20.5616 15.6984 19.5585 13.9608ZM19.6833 19.2912L17.8064 20.376L19.2512 22.8768L21.1257 21.7944L19.6833 19.2912ZM21.3225 22.1352L19.4457 23.2176C19.7457 23.7384 20.4081 23.9136 20.9265 23.616C21.4448 23.316 21.6224 22.6512 21.3225 22.1352Z" fill="#333333"/>
</svg>
